<mxfile host="65bd71144e">
    <diagram id="gZowCQkTl3sgQccaukkg" name="第 1 页">
        <mxGraphModel dx="1000" dy="595" grid="1" gridSize="10" guides="1" tooltips="1" connect="1" arrows="1" fold="1" page="1" pageScale="1" pageWidth="827" pageHeight="1169" math="0" shadow="0">
            <root>
                <mxCell id="0"/>
                <mxCell id="1" parent="0"/>
                <mxCell id="4" value="" style="ellipse;whiteSpace=wrap;html=1;fillColor=#dae8fc;strokeColor=#6c8ebf;opacity=70;" parent="1" vertex="1">
                    <mxGeometry x="170" y="300" width="150" height="100" as="geometry"/>
                </mxCell>
                <mxCell id="10" style="edgeStyle=none;html=1;exitX=0.5;exitY=1;exitDx=0;exitDy=0;entryX=0.5;entryY=0;entryDx=0;entryDy=0;" parent="1" source="2" target="4" edge="1">
                    <mxGeometry relative="1" as="geometry"/>
                </mxCell>
                <mxCell id="2" value="x86_64指令&lt;br&gt;近2000条" style="ellipse;whiteSpace=wrap;html=1;fillColor=#dae8fc;strokeColor=#6c8ebf;" parent="1" vertex="1">
                    <mxGeometry x="70" y="150" width="210" height="130" as="geometry"/>
                </mxCell>
                <mxCell id="11" style="edgeStyle=none;html=1;exitX=0.5;exitY=1;exitDx=0;exitDy=0;entryX=0.5;entryY=0;entryDx=0;entryDy=0;" parent="1" source="3" target="5" edge="1">
                    <mxGeometry relative="1" as="geometry"/>
                </mxCell>
                <mxCell id="3" value="RISC-V（GC）指令&lt;br&gt;272条" style="ellipse;whiteSpace=wrap;html=1;fillColor=#ffe6cc;strokeColor=#d79b00;" parent="1" vertex="1">
                    <mxGeometry x="330" y="175" width="120" height="80" as="geometry"/>
                </mxCell>
                <mxCell id="5" value="" style="ellipse;whiteSpace=wrap;html=1;opacity=60;fillColor=#fad7ac;strokeColor=#b46504;" parent="1" vertex="1">
                    <mxGeometry x="250" y="310" width="120" height="80" as="geometry"/>
                </mxCell>
                <mxCell id="12" value="新加&lt;br&gt;51条" style="text;html=1;strokeColor=none;fillColor=none;align=center;verticalAlign=middle;whiteSpace=wrap;rounded=0;opacity=2;" parent="1" vertex="1">
                    <mxGeometry x="316" y="335" width="60" height="30" as="geometry"/>
                </mxCell>
                <mxCell id="13" value="复用&lt;br&gt;200余条" style="text;html=1;strokeColor=none;fillColor=none;align=center;verticalAlign=middle;whiteSpace=wrap;rounded=0;opacity=2;" parent="1" vertex="1">
                    <mxGeometry x="250" y="335" width="60" height="30" as="geometry"/>
                </mxCell>
                <mxCell id="14" value="x86微码&lt;br&gt;500余条" style="text;html=1;strokeColor=none;fillColor=none;align=center;verticalAlign=middle;whiteSpace=wrap;rounded=0;opacity=2;" parent="1" vertex="1">
                    <mxGeometry x="180" y="335" width="60" height="30" as="geometry"/>
                </mxCell>
                <mxCell id="16" value="" style="shape=curlyBracket;whiteSpace=wrap;html=1;rounded=1;flipH=1;labelPosition=right;verticalLabelPosition=middle;align=left;verticalAlign=middle;opacity=70;direction=north;" parent="1" vertex="1">
                    <mxGeometry x="170" y="410" width="200" height="20" as="geometry"/>
                </mxCell>
                <mxCell id="17" value="融合微码" style="text;html=1;strokeColor=none;fillColor=none;align=center;verticalAlign=middle;whiteSpace=wrap;rounded=0;opacity=70;" parent="1" vertex="1">
                    <mxGeometry x="240" y="430" width="60" height="30" as="geometry"/>
                </mxCell>
            </root>
        </mxGraphModel>
    </diagram>
</mxfile>